<svg width="506" height="379" viewBox="0 0 506 379" fill="none" xmlns="http://www.w3.org/2000/svg">
<path d="M505.143 377.002L464.264 326.956C463.663 326.279 463.212 325.753 462.31 325.753C462.31 325.753 395.281 325.678 378.523 320.944C378.373 320.869 378.298 320.719 378.448 320.644C388.367 310.274 431.05 265.487 431.05 189.591C431.05 100.018 361.616 0 241.534 0C119.123 0 52.0186 103.099 52.0186 189.516C53.1458 246.4 74.3367 289.233 110.557 325.378C110.707 325.528 110.632 325.753 110.406 325.753H25.6427C24.8161 325.753 24.0647 326.204 23.689 326.956L0.0934305 377.228C-0.207149 377.904 0.243723 378.731 1.07032 378.731C1.07032 378.731 237.702 378.731 241.459 378.731C269.263 378.731 295.789 373.095 319.61 362.274C319.685 362.274 319.685 362.274 319.76 362.274C340.575 369.713 362.743 374.222 385.813 375.499C449.836 380.384 504.316 378.731 504.316 378.731C505.218 378.731 505.669 377.679 505.143 377.002ZM102.817 189.365C102.817 150.666 119.574 111.215 152.638 84.4629C152.788 84.3126 153.089 84.5381 152.938 84.7635C141.141 105.428 130.169 158.781 141.065 201.99C161.805 284.273 224.852 321.019 232.968 325.453C233.193 325.528 233.043 325.829 232.817 325.829C154.141 320.493 102.817 254.741 102.817 189.365ZM308.413 306.065C308.338 306.065 308.338 306.065 308.263 306.065C285.945 299.828 188.707 244.897 188.707 147.434C188.707 68.0813 237.401 36.821 282.413 36.821C355.755 36.821 383.708 120.683 383.708 163.29C383.708 225.285 345.159 284.95 308.413 306.065Z" fill="#007FC5" fill-opacity="0.1"/>
</svg>
